<svg width="215" height="216" viewBox="0 0 215 216" fill="none" xmlns="http://www.w3.org/2000/svg">
<path d="M138.373 100.928H78.9459C75.7803 100.928 73.3342 105.123 73.3342 110.016V206.236C73.3342 211.362 75.9242 215.323 78.9459 215.323H138.373C141.538 215.323 143.984 211.129 143.984 206.236V110.016C144.128 105.123 141.538 100.928 138.373 100.928Z" fill="#F8679B"/>
<path d="M120.826 70.6931H10.4531C4.5737 70.6931 0.0304565 73.4058 0.0304565 76.5717V138.833C0.0304565 142.15 4.84095 144.713 10.4531 144.713H120.826C126.705 144.713 131.248 141.999 131.248 138.833V76.5717C131.248 73.4058 126.438 70.6931 120.826 70.6931Z" fill="#47CBFA"/>
<path d="M204.805 70.6902H97.2707C91.5425 70.6902 87.1163 73.4029 87.1163 76.5688V138.83C87.1163 142.147 91.8029 144.71 97.2707 144.71H204.805C210.533 144.71 214.959 141.996 214.959 138.83V76.5688C215.22 73.4029 210.533 70.6902 204.805 70.6902Z" fill="#91D9C3"/>
<path d="M138.373 0.0380859H78.9459C75.7803 0.0380859 73.3342 3.73724 73.3342 8.05433V92.9586C73.3342 97.4813 75.9242 100.975 78.9459 100.975H138.373C141.538 100.975 143.984 97.2757 143.984 92.9586V8.05433C144.128 3.73724 141.538 0.0380859 138.373 0.0380859Z" fill="#FABF4D"/>
<path d="M156.129 150.651H107.601C82.1331 150.651 61.0178 130.369 60.9251 104.994C60.8325 79.5261 81.67 58.8738 107.231 58.9664C132.328 59.059 152.98 79.3408 153.258 104.253C153.351 113.977 150.48 123.053 145.386 130.462L158.167 146.669C159.371 148.243 158.167 150.651 156.129 150.651Z" fill="white"/>
<path d="M115.41 39.9497H59.187C52.5581 39.9497 47.2384 45.2693 47.2384 51.8164V163.527C47.2384 170.074 52.6399 175.393 59.187 175.393H115.41C153.056 175.393 183.583 145.031 183.583 107.631C183.583 70.3938 153.056 39.9497 115.41 39.9497ZM152.156 145.44H109.273C86.7668 145.44 68.1074 127.518 68.0256 105.094C67.9438 82.5879 86.3576 64.3377 108.945 64.4195C131.124 64.5014 149.374 82.4242 149.619 104.439C149.701 113.032 147.164 121.052 142.663 127.599L153.957 141.921C155.021 143.313 153.957 145.44 152.156 145.44Z" fill="#6666FF"/>
</svg>
